<?xml version="1.0" standalone="no"?><svg xmlns="http://www.w3.org/2000/svg" viewBox="0 0 1440 320"><path fill="#ffff" fill-opacity="1" d="M0,256L30,234.7C60,213,120,171,180,170.7C240,171,300,213,360,202.7C420,192,480,128,540,128C600,128,660,192,720,208C780,224,840,192,900,192C960,192,1020,224,1080,240C1140,256,1200,256,1260,245.3C1320,235,1380,213,1410,202.7L1440,192L1440,0L1410,0C1380,0,1320,0,1260,0C1200,0,1140,0,1080,0C1020,0,960,0,900,0C840,0,780,0,720,0C660,0,600,0,540,0C480,0,420,0,360,0C300,0,240,0,180,0C120,0,60,0,30,0L0,0Z"></path></svg>